Coordinates
version=1
nRows=20
nColumns=38
inDegrees=no

Units are S.I. units (second, meters, Newtons, ...)
If the header above contains a line with 'inDegrees', this indicates whether rotational values are in degrees (yes) or radians (no).

endheader
time	pelvis_tilt	pelvis_list	pelvis_rotation	pelvis_tx	pelvis_ty	pelvis_tz	hip_flexion_r	hip_adduction_r	hip_rotation_r	knee_angle_r	ankle_angle_r	subtalar_angle_r	mtp_angle_r	hip_flexion_l	hip_adduction_l	hip_rotation_l	knee_angle_l	ankle_angle_l	subtalar_angle_l	mtp_angle_l	lumbar_extension	lumbar_bending	lumbar_rotation	arm_flex_r	arm_add_r	arm_rot_r	elbow_flex_r	pro_sup_r	wrist_flex_r	wrist_dev_r	arm_flex_l	arm_add_l	arm_rot_l	elbow_flex_l	pro_sup_l	wrist_flex_l	wrist_dev_l
0.44	0.353412	1.3653	-1.8765	0.910168	1.15272	0.953399	0.409301	-0.278822	-0.0869665	1.15197	0.0983347	0	0	-0.214578	0.178809	-0.178563	0.101316	0.0231334	0	0	-0.0920974	-0.0822234	0.00333908	0.136722	-0.386936	-0.330432	1.81437	0.889754	0	0	0.279971	-0.376379	-0.0704726	1.86592	0.702856	0	0
0.45	0.339452	1.3692	-1.85291	0.91165	1.14404	0.954131	0.412845	-0.276682	-0.111397	1.10227	0.103832	0	0	-0.229607	0.173558	-0.169081	0.0886926	0.0235986	0	0	-0.09384	-0.0765454	-0.00559894	0.139691	-0.387653	-0.332099	1.81415	0.88884	0	0	0.281438	-0.376911	-0.0680743	1.86685	0.70286	0	0
0.46	0.325438	1.37282	-1.82983	0.913088	1.13529	0.954669	0.413826	-0.274749	-0.138242	1.04966	0.110148	0	0	-0.244279	0.16838	-0.158952	0.0769622	0.0246088	0	0	-0.095212	-0.0709867	-0.013849	0.142438	-0.389125	-0.33256	1.81418	0.884835	0	0	0.282953	-0.377359	-0.0655019	1.86725	0.703818	0	0
0.47	0.312177	1.37624	-1.80862	0.91436	1.12642	0.954934	0.412924	-0.272637	-0.166913	0.994964	0.116568	0	0	-0.258885	0.163621	-0.149248	0.0656691	0.0270043	0	0	-0.0960948	-0.0658222	-0.0204688	0.145575	-0.390527	-0.334972	1.81306	0.890267	0	0	0.284863	-0.377512	-0.0626585	1.8675	0.705557	0	0
0.48	0.300118	1.37957	-1.78991	0.915441	1.11743	0.954906	0.410648	-0.270289	-0.197899	0.938078	0.12173	0	0	-0.273625	0.159556	-0.139614	0.0541812	0.0294247	0	0	-0.0963132	-0.0611461	-0.0247673	0.147268	-0.391971	-0.338096	1.8128	0.894456	0	0	0.287772	-0.3769	-0.0594198	1.86675	0.706941	0	0
0.49	0.288056	1.38261	-1.77181	0.91641	1.10835	0.954633	0.405886	-0.268083	-0.233094	0.877754	0.122884	0	0	-0.288941	0.155916	-0.129675	0.0421375	0.0313632	0	0	-0.0964193	-0.0565327	-0.0283261	0.148499	-0.39337	-0.340869	1.81326	0.896386	0	0	0.290653	-0.375857	-0.0567605	1.8656	0.71004	0	0
0.5	0.278965	1.38594	-1.75795	0.917147	1.09917	0.954021	0.400605	-0.265322	-0.270157	0.816027	0.123698	0	0	-0.303849	0.153137	-0.120684	0.0299629	0.032791	0	0	-0.0958341	-0.0526304	-0.0306096	0.148733	-0.394694	-0.342464	1.81594	0.890719	0	0	0.293277	-0.374781	-0.0547591	1.86474	0.71127	0	0
0.51	0.275093	1.3916	-1.75072	0.917541	1.08986	0.952974	0.397428	-0.260937	-0.306405	0.752852	0.124268	0	0	-0.31554	0.150962	-0.113267	0.0187995	0.0347322	0	0	-0.0935122	-0.0471449	-0.0375255	0.154392	-0.395144	-0.333412	1.82107	0.876887	0	0	0.30193	-0.348375	-0.248333	1.82026	1.5708	0	0
0.52	0.273764	1.3958	-1.74795	0.917602	1.08063	0.951541	0.39319	-0.255345	-0.341379	0.689822	0.125757	0	0	-0.328522	0.149903	-0.107784	0.00778034	0.0382743	0	0	-0.090092	-0.0479417	-0.030433	0.147797	-0.395738	-0.344051	1.82357	0.871381	0	0	0.298003	-0.373309	-0.0522428	1.86337	0.718841	0	0
0.53	0.277375	1.4023	-1.7511	0.917346	1.07127	0.949722	0.391331	-0.248476	-0.378483	0.627109	0.127626	0	0	-0.338156	0.149273	-0.103829	5.12753e-08	0.0425521	0	0	-0.0849915	-0.0471788	-0.0286265	0.148386	-0.39457	-0.34731	1.824	0.879084	0	0	0.300112	-0.37334	-0.0516804	1.86367	0.71362	0	0
0.54	0.288533	1.40993	-1.76313	0.916806	1.06186	0.947521	0.391807	-0.240795	-0.415918	0.567408	0.131345	0	0	-0.345343	0.14991	-0.102843	0	0.0474629	0	0	-0.0781556	-0.0477992	-0.025596	0.149324	-0.392807	-0.351059	1.82297	0.88794	0	0	0.302225	-0.374003	-0.0510676	1.8636	0.712787	0	0
0.55	0.301353	1.41769	-1.77707	0.916145	1.05238	0.94515	0.391291	-0.231244	-0.453792	0.507446	0.137069	0	0	-0.352149	0.150509	-0.102901	0	0.0522904	0	0	-0.0708727	-0.0485757	-0.0223697	0.149057	-0.391051	-0.353027	1.82405	0.892128	0	0	0.304421	-0.37449	-0.0509823	1.8628	0.711961	0	0
0.56	0.308098	1.42352	-1.78576	0.915264	1.04337	0.942704	0.390331	-0.215268	-0.485341	0.448299	0.13512	0	0	-0.349342	0.154086	-0.0959642	0	0.0544605	0	0	-0.0666739	-0.0487361	-0.0186585	0.148472	-0.389794	-0.352083	1.82712	0.889459	0	0	0.306616	-0.375173	-0.0512989	1.86256	0.711585	0	0
0.57	0.327651	1.43102	-1.80651	0.914269	1.03383	0.940095	0.389335	-0.200519	-0.515083	0.389573	0.134354	0	0	-0.352991	0.154225	-0.098084	0	0.0615319	0	0	-0.0591589	-0.0507037	-0.0151829	0.147541	-0.388389	-0.351737	1.82829	0.888333	0	0	0.308308	-0.375816	-0.0521174	1.86189	0.711319	0	0
0.58	0.351615	1.43891	-1.83263	0.913065	1.02416	0.937339	0.38921	-0.183878	-0.539486	0.333884	0.137153	0	0	-0.356265	0.154359	-0.100503	0	0.0694839	0	0	-0.0505833	-0.0531084	-0.0111336	0.147214	-0.386335	-0.352242	1.82725	0.893998	0	0	0.308823	-0.376961	-0.0536612	1.86239	0.711231	0	0
0.59	0.382793	1.44774	-1.86661	0.911726	1.01424	0.934419	0.390162	-0.166197	-0.558593	0.281774	0.140645	0	0	-0.358487	0.154392	-0.102782	0	0.0783003	0	0	-0.0399649	-0.0558139	-0.00700185	0.145588	-0.384082	-0.350134	1.82772	0.894797	0	0	0.308431	-0.37804	-0.0563111	1.86254	0.710986	0	0
0.6	0.414372	1.45686	-1.90099	0.910339	1.00399	0.931532	0.389669	-0.147409	-0.574093	0.232009	0.138316	0	0	-0.360792	0.153186	-0.103904	0	0.0879787	0	0	-0.0283195	-0.0578511	-0.00316028	0.144076	-0.381688	-0.348669	1.82547	0.900447	0	0	0.307226	-0.378687	-0.0595456	1.86209	0.709934	0	0
0.61	0.44949	1.46627	-1.93748	0.909133	0.993674	0.928756	0.389266	-0.130219	-0.590002	0.190923	0.133053	0	0	-0.362937	0.150619	-0.102036	0	0.0978371	0	0	-0.0174346	-0.0568588	-0.00663933	0.149388	-0.378132	-0.341259	1.82081	0.92545	0	0	0.312074	-0.354139	-0.25266	1.8161	1.5708	0	0
0.62	0.46427	1.4709	-1.95287	0.908152	0.982447	0.926304	0.384055	-0.115581	-0.611268	0.162375	0.128308	0	0	-0.371169	0.14737	-0.101415	0	0.108671	0	0	-0.00843284	-0.0596304	0.000352881	0.141776	-0.376688	-0.347902	1.81706	0.93211	0	0	0.302896	-0.378624	-0.0656694	1.86005	0.728546	0	0
0.63	0.47255	1.47515	-1.96004	0.907554	0.971187	0.924112	0.379303	-0.104342	-0.632096	0.147551	0.121808	0	0	-0.379977	0.143044	-0.0982081	0	0.118164	0	0	-0.00146075	-0.0586496	-0.000487697	0.13946	-0.375554	-0.344114	1.81607	0.930027	0	0	0.299389	-0.377191	-0.0698067	1.85963	0.724772	0	0
